<svg width="10" height="10" viewBox="0 0 10 10" fill="none" xmlns="http://www.w3.org/2000/svg">
<path d="M5.01229 7.91671C4.74709 7.91665 4.49278 7.8144 4.30529 7.63243L0.305288 3.75149C0.209778 3.66199 0.133596 3.55493 0.0811869 3.43655C0.0287779 3.31818 0.00119157 3.19087 3.7757e-05 3.06204C-0.00111606 2.93321 0.0241854 2.80545 0.0744663 2.68621C0.124747 2.56698 0.199 2.45865 0.292893 2.36755C0.386786 2.27645 0.498438 2.20441 0.621334 2.15562C0.74423 2.10684 0.87591 2.08229 1.00869 2.08341C1.14147 2.08453 1.27269 2.1113 1.39469 2.16214C1.5167 2.21299 1.62704 2.28691 1.71929 2.37958L5.01229 5.57456L8.30529 2.37958C8.49389 2.20284 8.74649 2.10505 9.00869 2.10726C9.27088 2.10947 9.5217 2.21151 9.70711 2.39139C9.89251 2.57128 9.99768 2.81463 9.99996 3.06902C10.0022 3.32342 9.90145 3.5685 9.71929 3.75149L5.71929 7.63243C5.53179 7.8144 5.27748 7.91665 5.01229 7.91671Z" fill="#1F2A37"/>
</svg>
