<svg width="22" height="23" viewBox="0 0 22 23" fill="none" xmlns="http://www.w3.org/2000/svg">
<path d="M11.0046 6.23729C8.27178 6.23729 6.06748 8.50642 6.06748 11.3196C6.06748 14.1328 8.27178 16.4019 11.0046 16.4019C13.7374 16.4019 15.9417 14.1328 15.9417 11.3196C15.9417 8.50642 13.7374 6.23729 11.0046 6.23729ZM11.0046 14.6238C9.23857 14.6238 7.79482 13.142 7.79482 11.3196C7.79482 9.49723 9.23428 8.01544 11.0046 8.01544C12.7749 8.01544 14.2144 9.49723 14.2144 11.3196C14.2144 13.142 12.7706 14.6238 11.0046 14.6238ZM17.2952 6.0294C17.2952 6.68846 16.7796 7.21483 16.1437 7.21483C15.5034 7.21483 14.9921 6.68404 14.9921 6.0294C14.9921 5.37476 15.5077 4.84397 16.1437 4.84397C16.7796 4.84397 17.2952 5.37476 17.2952 6.0294ZM20.5651 7.23252C20.4921 5.64457 20.1397 4.23798 19.0097 3.07909C17.8839 1.92019 16.5175 1.55749 14.9749 1.47787C13.3851 1.38498 8.61982 1.38498 7.02998 1.47787C5.4917 1.55306 4.12529 1.91577 2.99521 3.07466C1.86514 4.23356 1.51709 5.64015 1.43975 7.2281C1.34951 8.8647 1.34951 13.7701 1.43975 15.4067C1.51279 16.9946 1.86514 18.4012 2.99521 19.5601C4.12529 20.719 5.4874 21.0817 7.02998 21.1613C8.61982 21.2542 13.3851 21.2542 14.9749 21.1613C16.5175 21.0862 17.8839 20.7234 19.0097 19.5601C20.1355 18.4012 20.4878 16.9946 20.5651 15.4067C20.6554 13.7701 20.6554 8.86913 20.5651 7.23252ZM18.5112 17.1627C18.1761 18.0297 17.5272 18.6976 16.6808 19.047C15.4132 19.5646 12.4054 19.4451 11.0046 19.4451C9.60381 19.4451 6.5917 19.5601 5.32842 19.047C4.48623 18.702 3.8374 18.0341 3.49795 17.1627C2.99521 15.8579 3.11123 12.7616 3.11123 11.3196C3.11123 9.87763 2.99951 6.77693 3.49795 5.47649C3.83311 4.60953 4.48193 3.94162 5.32842 3.59218C6.596 3.07466 9.60381 3.19409 11.0046 3.19409C12.4054 3.19409 15.4175 3.07909 16.6808 3.59218C17.523 3.9372 18.1718 4.60511 18.5112 5.47649C19.014 6.78135 18.8979 9.87763 18.8979 11.3196C18.8979 12.7616 19.014 15.8623 18.5112 17.1627Z" fill="#393939"/>
</svg>
