<svg width="20" height="20" viewBox="0 0 20 20" fill="none" xmlns="http://www.w3.org/2000/svg">
<path d="M1.66666 1.66663H2.75513C2.96014 1.66663 3.06265 1.66663 3.14514 1.70433C3.21784 1.73755 3.27944 1.79098 3.32261 1.85825C3.3716 1.93458 3.3861 2.03606 3.41509 2.23901L3.80951 4.99996M3.80951 4.99996L4.68609 11.4428C4.79733 12.2604 4.85295 12.6692 5.04841 12.9769C5.22064 13.2481 5.46756 13.4637 5.75945 13.5978C6.09071 13.75 6.50328 13.75 7.32841 13.75H14.46C15.2454 13.75 15.6382 13.75 15.9591 13.6086C16.2421 13.484 16.4849 13.2832 16.6602 13.0285C16.8591 12.7396 16.9326 12.3538 17.0796 11.5823L18.1826 5.79137C18.2343 5.5198 18.2602 5.38401 18.2227 5.27788C18.1898 5.18477 18.1249 5.10636 18.0396 5.05664C17.9424 4.99996 17.8041 4.99996 17.5277 4.99996H3.80951ZM8.33332 17.5C8.33332 17.9602 7.96023 18.3333 7.49999 18.3333C7.03975 18.3333 6.66666 17.9602 6.66666 17.5C6.66666 17.0397 7.03975 16.6666 7.49999 16.6666C7.96023 16.6666 8.33332 17.0397 8.33332 17.5ZM15 17.5C15 17.9602 14.6269 18.3333 14.1667 18.3333C13.7064 18.3333 13.3333 17.9602 13.3333 17.5C13.3333 17.0397 13.7064 16.6666 14.1667 16.6666C14.6269 16.6666 15 17.0397 15 17.5Z" stroke="white" stroke-width="1.5" stroke-linecap="round" stroke-linejoin="round"/>
</svg>
