<svg width="22" height="23" viewBox="0 0 22 23" fill="none" xmlns="http://www.w3.org/2000/svg">
<path d="M19.7386 6.71083C19.7525 6.912 19.7525 7.11321 19.7525 7.31438C19.7525 13.4503 15.2157 20.5204 6.92385 20.5204C4.36928 20.5204 1.9962 19.7587 0 18.4367C0.362957 18.4798 0.711906 18.4942 1.08883 18.4942C3.19666 18.4942 5.13704 17.7614 6.68654 16.5112C4.7043 16.468 3.04313 15.1316 2.47079 13.2923C2.75 13.3354 3.02917 13.3641 3.32234 13.3641C3.72715 13.3641 4.132 13.3066 4.50888 13.2061C2.4429 12.7749 0.893363 10.9069 0.893363 8.65078V8.59332C1.49359 8.9382 2.19162 9.15375 2.93141 9.18245C1.71695 8.34898 0.921293 6.92637 0.921293 5.31693C0.921293 4.45475 1.1446 3.6644 1.53549 2.97464C3.75504 5.79114 7.09135 7.63047 10.8324 7.83168C10.7626 7.4868 10.7207 7.12759 10.7207 6.76833C10.7207 4.21045 12.7309 2.12683 15.2296 2.12683C16.5278 2.12683 17.7004 2.68726 18.524 3.59256C19.543 3.3914 20.5202 3.00339 21.3857 2.47171C21.0506 3.54948 20.3387 4.45479 19.4035 5.02955C20.3109 4.92901 21.1903 4.67029 21.9999 4.31108C21.3858 5.23072 20.618 6.04977 19.7386 6.71083Z" fill="#393939"/>
</svg>
