<svg width="20" height="20" viewBox="0 0 20 20" fill="none" xmlns="http://www.w3.org/2000/svg">
<path d="M4.68391 19.5731H0.692969V6.7211H4.68391V19.5731ZM2.68629 4.96798C1.41012 4.96798 0.375 3.91095 0.375 2.63477C0.375 2.02178 0.61851 1.4339 1.05196 1.00045C1.48541 0.566996 2.0733 0.323486 2.68629 0.323486C3.29928 0.323486 3.88717 0.566996 4.32062 1.00045C4.75407 1.4339 4.99758 2.02178 4.99758 2.63477C4.99758 3.91095 3.96203 4.96798 2.68629 4.96798ZM19.6207 19.5731H15.6384V13.3168C15.6384 11.8258 15.6083 9.91368 13.5634 9.91368C11.4884 9.91368 11.1705 11.5336 11.1705 13.2094V19.5731H7.18383V6.7211H11.0115V8.47423H11.0673C11.6002 7.46446 12.9017 6.39884 14.8434 6.39884C18.8825 6.39884 19.625 9.0586 19.625 12.5133V19.5731H19.6207Z" fill="#393939"/>
</svg>
